<?xml version="1.0" encoding="utf-8"?>
<svg width="48" height="48" viewBox="0 0 48 48" fill="none" xmlns="http://www.w3.org/2000/svg"><path d="M38 8H10C8.89543 8 8 8.89543 8 10V38C8 39.1046 8.89543 40 10 40H38C39.1046 40 40 39.1046 40 38V10C40 8.89543 39.1046 8 38 8Z" fill="#f5a623" stroke="#f5a623" stroke-width="3" stroke-linejoin="round"/><path d="M30 18H18V30H30V18Z" fill="#ffffff" stroke="#ffffff" stroke-width="3" stroke-linejoin="round"/><path fill-rule="evenodd" clip-rule="evenodd" d="M14.9092 2V8V2Z" fill="#f5a623"/><path d="M14.9092 2V8" stroke="#f5a623" stroke-width="3" stroke-linecap="round" stroke-linejoin="round"/><path fill-rule="evenodd" clip-rule="evenodd" d="M14.9092 40V46V40Z" fill="#f5a623"/><path d="M14.9092 40V46" stroke="#f5a623" stroke-width="3" stroke-linecap="round" stroke-linejoin="round"/><path fill-rule="evenodd" clip-rule="evenodd" d="M24 2V8V2Z" fill="#f5a623"/><path d="M24 2V8" stroke="#f5a623" stroke-width="3" stroke-linecap="round" stroke-linejoin="round"/><path fill-rule="evenodd" clip-rule="evenodd" d="M24 40V46V40Z" fill="#f5a623"/><path d="M24 40V46" stroke="#f5a623" stroke-width="3" stroke-linecap="round" stroke-linejoin="round"/><path fill-rule="evenodd" clip-rule="evenodd" d="M33.0908 2V8V2Z" fill="#f5a623"/><path d="M33.0908 2V8" stroke="#f5a623" stroke-width="3" stroke-linecap="round" stroke-linejoin="round"/><path fill-rule="evenodd" clip-rule="evenodd" d="M33.0908 40V46V40Z" fill="#f5a623"/><path d="M33.0908 40V46" stroke="#f5a623" stroke-width="3" stroke-linecap="round" stroke-linejoin="round"/><path fill-rule="evenodd" clip-rule="evenodd" d="M2 14.9092H8H2Z" fill="#f5a623"/><path d="M2 14.9092H8" stroke="#f5a623" stroke-width="3" stroke-linecap="round" stroke-linejoin="round"/><path fill-rule="evenodd" clip-rule="evenodd" d="M40 14.9092H46H40Z" fill="#f5a623"/><path d="M40 14.9092H46" stroke="#f5a623" stroke-width="3" stroke-linecap="round" stroke-linejoin="round"/><path fill-rule="evenodd" clip-rule="evenodd" d="M2 24H8H2Z" fill="#f5a623"/><path d="M2 24H8" stroke="#f5a623" stroke-width="3" stroke-linecap="round" stroke-linejoin="round"/><path fill-rule="evenodd" clip-rule="evenodd" d="M40 24H46H40Z" fill="#f5a623"/><path d="M40 24H46" stroke="#f5a623" stroke-width="3" stroke-linecap="round" stroke-linejoin="round"/><path fill-rule="evenodd" clip-rule="evenodd" d="M2 33.0908H8H2Z" fill="#f5a623"/><path d="M2 33.0908H8" stroke="#f5a623" stroke-width="3" stroke-linecap="round" stroke-linejoin="round"/><path fill-rule="evenodd" clip-rule="evenodd" d="M40 33.0908H46H40Z" fill="#f5a623"/><path d="M40 33.0908H46" stroke="#f5a623" stroke-width="3" stroke-linecap="round" stroke-linejoin="round"/></svg>